Coordinates
version=1
nRows=27
nColumns=12
inDegrees=yes

Units are S.I. units (second, meters, Newtons, ...)
Angles are in degrees

endheader
time	SC_y	SC_z	SC_x	AC_y	AC_z	AC_x	GH_y	GH_z	GH_yy	EL_x	PS_y
       0.0              -39.25       -0.01237          71.51          37.04         -6.125          4.198         -40.36          67.95          14.05          69.32           5.92
   0.02012              -39.25       -0.01243           71.5          37.04         -6.125          4.197         -40.34          67.94          14.06          69.33           5.94
   0.04024              -39.26       -0.01249          71.49          37.04         -6.125          4.195         -40.33          67.94          14.07          69.34          5.961
   0.06036              -39.26       -0.01256          71.48          37.05         -6.126          4.193         -40.31          67.93          14.08          69.35          5.983
   0.08048              -39.26       -0.01263          71.47          37.05         -6.126          4.192         -40.29          67.92          14.09          69.36          6.007
    0.1006              -39.26       -0.01271          71.46          37.05         -6.126           4.19         -40.27          67.91          14.11          69.38          6.033
    0.1207              -39.27       -0.01279          71.45          37.05         -6.127          4.188         -40.25           67.9          14.12          69.39           6.06
    0.1408              -39.27       -0.01287          71.44          37.05         -6.127          4.186         -40.23          67.89          14.14           69.4          6.089
     0.161              -39.27       -0.01296          71.43          37.06         -6.128          4.183          -40.2          67.88          14.15          69.42           6.12
    0.1811              -39.28       -0.01306          71.41          37.06         -6.128          4.181         -40.18          67.87          14.17          69.44          6.154
    0.2012              -39.28       -0.01317           71.4          37.06         -6.129          4.178         -40.15          67.85          14.18          69.45           6.19
    0.2213              -39.28       -0.01328          71.38          37.07         -6.129          4.176         -40.12          67.84           14.2          69.47          6.228
    0.2414              -39.29        -0.0134          71.37          37.07          -6.13          4.173         -40.09          67.83          14.22          69.49           6.27
    0.2616              -39.29       -0.01354          71.35          37.07         -6.131          4.169         -40.05          67.81          14.25          69.52          6.315
    0.2817               -39.3       -0.01368          71.33          37.08         -6.131          4.166         -40.02          67.79          14.27          69.54          6.364
    0.3018               -39.3       -0.01383          71.31          37.08         -6.132          4.162         -39.98          67.77           14.3          69.57          6.417
    0.3219              -39.31         -0.014          71.28          37.08         -6.133          4.158         -39.93          67.75          14.33           69.6          6.474
     0.342              -39.32       -0.01419          71.26          37.09         -6.134          4.153         -39.88          67.73          14.36          69.63          6.537
    0.3622              -39.32       -0.01439          71.23          37.09         -6.135          4.148         -39.83           67.7          14.39          69.66          6.605
    0.3823              -39.33       -0.01461           71.2           37.1         -6.136          4.143         -39.77          67.68          14.43           69.7           6.68
    0.4024              -39.34       -0.01485          71.17          37.11         -6.137          4.137         -39.71          67.65          14.47          69.74          6.762
    0.4225              -39.35       -0.01512          71.13          37.11         -6.139          4.131         -39.64          67.62          14.51          69.78          6.852
    0.4426              -39.36       -0.01541          71.09          37.12          -6.14          4.123         -39.57          67.58          14.56          69.83          6.952
    0.4628              -39.37       -0.01573          71.04          37.13         -6.142          4.115         -39.48          67.54          14.62          69.89          7.063
    0.4829              -39.39        -0.0161           71.0          37.14         -6.144          4.106         -39.39           67.5          14.68          69.95          7.186
     0.503               -39.4        -0.0165          70.94          37.15         -6.146          4.097         -39.28          67.45          14.74          70.02          7.323
    0.5231              -39.42       -0.01695          70.88          37.16         -6.148          4.085         -39.16          67.39          14.82          70.09          7.477
